<?xml version="1.0" encoding="UTF-8"?>
<svg xmlns="http://www.w3.org/2000/svg" viewBox="0 0 11.07 24">
  <defs>
    <style>.cls-1{fill:#fff;}</style>
  </defs>
  <g id="Layer_2" data-name="Layer 2">
    <g id="Layer_1-2" data-name="Layer 1">
      <g id="Icon_Square">
        <path class="cls-1" d="M7.38,1.49,5.28.36l0,12.89,2.42.85ZM6.78,2l.27.13V3.37l-.27-.12ZM6.3,1.49l.3.12V3.18l-.3-.12Zm-.48.16.28.1V3l-.28-.1ZM6,13.11,5.92,6.37l.32.12.08,6.74Zm.6.22L6.49,6.24l.31.12.11,7.1Zm.49-7.75L6,5.11V3.7l1.14.47ZM7,6.69l.32.12.15,6.87-.31-.12Z"></path>
        <path class="cls-1" d="M9.24,17.35H1.83a.56.56,0,0,0-.56.56v4.27a.57.57,0,0,0,.56.56H9.24a.57.57,0,0,0,.56-.56V17.91A.56.56,0,0,0,9.24,17.35ZM5.5,22a.94.94,0,1,1,.93-.94A.94.94,0,0,1,5.5,22Z"></path>
        <path class="cls-1" d="M9.83,16.05h-1l0,.54h1a.7.7,0,0,1,.7.7v5.47a.7.7,0,0,1-.7.71H1.24a.71.71,0,0,1-.71-.71V17.29a.71.71,0,0,1,.71-.7H3l.12-2.1L5.06,13,3.63,11.74l1.44-1.31L3.64,9.1,5.07,8,3.65,6.72,5.14,5.47,3.5,4.18,3.59,1.8,5.26.63,7.05,1.7l0,.54v.25h0l0,1.24L5.44,3.07l-.05.14,1.74.68L7.2,5.74,5.44,5.05l-.05.13,2.06.72.22,8.42-2.3-.61,0,2.83.88,0V15l1,.2.06,1.45,1.21,0L8.4,14.57l-.28-.1L7.56.79H7.07v.3L5.24,0,3.58,1.16V.83H3.09L3,4.45l1.33,1L2.83,6.71,4.23,8,2.82,9.06l1.46,1.36L2.84,11.74,4.28,13,2.62,14.27,2.5,16.05H1.24A1.25,1.25,0,0,0,0,17.29v5.47A1.25,1.25,0,0,0,1.24,24H9.83a1.25,1.25,0,0,0,1.24-1.24V17.29A1.25,1.25,0,0,0,9.83,16.05Z"></path>
      </g>
    </g>
  </g>
</svg>
